<svg width="1371" height="603" viewBox="0 0 1371 603" fill="none" xmlns="http://www.w3.org/2000/svg">
<mask id="path-1-outside-1_3018_591" maskUnits="userSpaceOnUse" x="34" y="186" width="1135" height="369" fill="black">
<rect fill="white" x="34" y="186" width="1135" height="369"/>
<path d="M261.5 228H86V342C93.6667 331.333 105 322.667 120 316C135 309 151.167 305.5 168.5 305.5C196.167 305.5 218.667 311.333 236 323C253.333 334.333 265.667 349.167 273 367.5C280.667 385.5 284.5 404.667 284.5 425C284.5 449 280 470.5 271 489.5C262 508.5 248.167 523.5 229.5 534.5C211.167 545.5 188.333 551 161 551C126 551 97.6667 542 76 524C54.3333 506 41.1667 482 36.5 452H81C85.3333 471 94.5 485.833 108.5 496.5C122.5 507.167 140.167 512.5 161.5 512.5C187.833 512.5 207.667 504.667 221 489C234.333 473 241 452 241 426C241 400 234.333 380 221 366C207.667 351.667 188 344.5 162 344.5C144.333 344.5 128.833 348.833 115.5 357.5C102.5 365.833 93 377.333 87 392H44V188H261.5V228ZM534.465 228H358.965V342C366.632 331.333 377.965 322.667 392.965 316C407.965 309 424.132 305.5 441.465 305.5C469.132 305.5 491.632 311.333 508.965 323C526.298 334.333 538.632 349.167 545.965 367.5C553.632 385.5 557.465 404.667 557.465 425C557.465 449 552.965 470.5 543.965 489.5C534.965 508.5 521.132 523.5 502.465 534.5C484.132 545.5 461.298 551 433.965 551C398.965 551 370.632 542 348.965 524C327.298 506 314.132 482 309.465 452H353.965C358.298 471 367.465 485.833 381.465 496.5C395.465 507.167 413.132 512.5 434.465 512.5C460.798 512.5 480.632 504.667 493.965 489C507.298 473 513.965 452 513.965 426C513.965 400 507.298 380 493.965 366C480.632 351.667 460.965 344.5 434.965 344.5C417.298 344.5 401.798 348.833 388.465 357.5C375.465 365.833 365.965 377.333 359.965 392H316.965V188H534.465V228ZM598.93 553C590.263 553 582.93 550 576.93 544C570.93 538 567.93 530.667 567.93 522C567.93 513.333 570.93 506 576.93 500C582.93 494 590.263 491 598.93 491C607.263 491 614.263 494 619.93 500C625.93 506 628.93 513.333 628.93 522C628.93 530.667 625.93 538 619.93 544C614.263 550 607.263 553 598.93 553ZM871.41 228H695.91V342C703.577 331.333 714.91 322.667 729.91 316C744.91 309 761.077 305.5 778.41 305.5C806.077 305.5 828.577 311.333 845.91 323C863.244 334.333 875.577 349.167 882.91 367.5C890.577 385.5 894.41 404.667 894.41 425C894.41 449 889.91 470.5 880.91 489.5C871.91 508.5 858.077 523.5 839.41 534.5C821.077 545.5 798.243 551 770.91 551C735.91 551 707.577 542 685.91 524C664.243 506 651.077 482 646.41 452H690.91C695.243 471 704.41 485.833 718.41 496.5C732.41 507.167 750.077 512.5 771.41 512.5C797.743 512.5 817.577 504.667 830.91 489C844.244 473 850.91 452 850.91 426C850.91 400 844.244 380 830.91 366C817.577 351.667 797.91 344.5 771.91 344.5C754.243 344.5 738.743 348.833 725.41 357.5C712.41 365.833 702.91 377.333 696.91 392H653.91V188H871.41V228ZM1144.38 228H968.875V342C976.542 331.333 987.875 322.667 1002.88 316C1017.88 309 1034.04 305.5 1051.38 305.5C1079.04 305.5 1101.54 311.333 1118.88 323C1136.21 334.333 1148.54 349.167 1155.88 367.5C1163.54 385.5 1167.38 404.667 1167.38 425C1167.38 449 1162.88 470.5 1153.88 489.5C1144.88 508.5 1131.04 523.5 1112.38 534.5C1094.04 545.5 1071.21 551 1043.88 551C1008.88 551 980.542 542 958.875 524C937.208 506 924.042 482 919.375 452H963.875C968.208 471 977.375 485.833 991.375 496.5C1005.38 507.167 1023.04 512.5 1044.38 512.5C1070.71 512.5 1090.54 504.667 1103.88 489C1117.21 473 1123.88 452 1123.88 426C1123.88 400 1117.21 380 1103.88 366C1090.54 351.667 1070.88 344.5 1044.88 344.5C1027.21 344.5 1011.71 348.833 998.375 357.5C985.375 365.833 975.875 377.333 969.875 392H926.875V188H1144.38V228Z"/>
</mask>
<path d="M261.5 228V229.5H263V228H261.5ZM86 228V226.5H84.5V228H86ZM86 342H84.5V346.657L87.218 342.875L86 342ZM120 316L120.609 317.371L120.622 317.365L120.634 317.359L120 316ZM236 323L235.162 324.244L235.171 324.25L235.179 324.255L236 323ZM273 367.5L271.607 368.057L271.613 368.073L271.62 368.088L273 367.5ZM271 489.5L272.356 490.142L271 489.5ZM229.5 534.5L228.738 533.208L228.728 533.214L229.5 534.5ZM76 524L76.9585 522.846L76 524ZM36.5 452V450.5H34.7486L35.0178 452.231L36.5 452ZM81 452L82.4624 451.666L82.1964 450.5H81V452ZM221 489L222.142 489.972L222.147 489.966L222.152 489.96L221 489ZM221 366L219.902 367.022L219.908 367.028L219.914 367.034L221 366ZM115.5 357.5L116.31 358.763L116.317 358.758L115.5 357.5ZM87 392V393.5H88.007L88.3883 392.568L87 392ZM44 392H42.5V393.5H44V392ZM44 188V186.5H42.5V188H44ZM261.5 188H263V186.5H261.5V188ZM261.5 226.5H86V229.5H261.5V226.5ZM84.5 228V342H87.5V228H84.5ZM87.218 342.875C94.695 332.473 105.792 323.956 120.609 317.371L119.391 314.629C104.208 321.377 92.6384 330.194 84.782 341.125L87.218 342.875ZM120.634 317.359C135.426 310.456 151.375 307 168.5 307V304C150.958 304 134.574 307.544 119.366 314.641L120.634 317.359ZM168.5 307C195.963 307 218.145 312.791 235.162 324.244L236.838 321.756C219.188 309.876 196.37 304 168.5 304V307ZM235.179 324.255C252.268 335.429 264.394 350.024 271.607 368.057L274.393 366.943C266.939 348.309 254.399 333.238 236.821 321.745L235.179 324.255ZM271.62 368.088C279.204 385.895 283 404.861 283 425H286C286 404.473 282.129 385.105 274.38 366.912L271.62 368.088ZM283 425C283 448.809 278.537 470.085 269.644 488.858L272.356 490.142C281.463 470.915 286 449.191 286 425H283ZM269.644 488.858C260.777 507.578 247.155 522.355 228.738 533.208L230.262 535.792C249.178 524.645 263.223 509.422 272.356 490.142L269.644 488.858ZM228.728 533.214C210.685 544.04 188.136 549.5 161 549.5V552.5C188.531 552.5 211.649 546.96 230.272 535.786L228.728 533.214ZM161 549.5C126.263 549.5 98.2955 540.572 76.9585 522.846L75.0415 525.154C97.0378 543.428 125.737 552.5 161 552.5V549.5ZM76.9585 522.846C55.596 505.099 42.5974 481.439 37.9822 451.769L35.0178 452.231C39.736 482.561 53.0707 506.901 75.0415 525.154L76.9585 522.846ZM36.5 453.5H81V450.5H36.5V453.5ZM79.5376 452.334C83.9401 471.637 93.2811 486.79 107.591 497.693L109.409 495.307C95.7189 484.876 86.7266 470.363 82.4624 451.666L79.5376 452.334ZM107.591 497.693C121.904 508.598 139.91 514 161.5 514V511C140.424 511 123.096 505.735 109.409 495.307L107.591 497.693ZM161.5 514C188.141 514 208.448 506.063 222.142 489.972L219.858 488.028C206.885 503.27 187.526 511 161.5 511V514ZM222.152 489.96C235.762 473.629 242.5 452.261 242.5 426H239.5C239.5 451.739 232.905 472.371 219.848 488.04L222.152 489.96ZM242.5 426C242.5 399.751 235.766 379.329 222.086 364.966L219.914 367.034C232.901 380.671 239.5 400.249 239.5 426H242.5ZM222.098 364.978C208.397 350.249 188.274 343 162 343V346C187.726 346 206.937 353.084 219.902 367.022L222.098 364.978ZM162 343C144.076 343 128.286 347.4 114.683 356.242L116.317 358.758C129.381 350.266 144.59 346 162 346V343ZM114.691 356.237C101.423 364.742 91.7253 376.488 85.6117 391.432L88.3883 392.568C94.2747 378.179 103.577 366.925 116.31 358.763L114.691 356.237ZM87 390.5H44V393.5H87V390.5ZM45.5 392V188H42.5V392H45.5ZM44 189.5H261.5V186.5H44V189.5ZM260 188V228H263V188H260ZM534.465 228V229.5H535.965V228H534.465ZM358.965 228V226.5H357.465V228H358.965ZM358.965 342H357.465V346.657L360.183 342.875L358.965 342ZM392.965 316L393.574 317.371L393.587 317.365L393.599 317.359L392.965 316ZM508.965 323L508.127 324.244L508.136 324.25L508.144 324.255L508.965 323ZM545.965 367.5L544.572 368.057L544.578 368.073L544.585 368.088L545.965 367.5ZM543.965 489.5L545.32 490.142L543.965 489.5ZM502.465 534.5L501.703 533.208L501.693 533.214L502.465 534.5ZM348.965 524L349.923 522.846L348.965 524ZM309.465 452V450.5H307.713L307.983 452.231L309.465 452ZM353.965 452L355.427 451.666L355.161 450.5H353.965V452ZM493.965 489L495.107 489.972L495.112 489.966L495.117 489.96L493.965 489ZM493.965 366L492.867 367.022L492.873 367.028L492.879 367.034L493.965 366ZM388.465 357.5L389.274 358.763L389.282 358.758L388.465 357.5ZM359.965 392V393.5H360.972L361.353 392.568L359.965 392ZM316.965 392H315.465V393.5H316.965V392ZM316.965 188V186.5H315.465V188H316.965ZM534.465 188H535.965V186.5H534.465V188ZM534.465 226.5H358.965V229.5H534.465V226.5ZM357.465 228V342H360.465V228H357.465ZM360.183 342.875C367.66 332.473 378.757 323.956 393.574 317.371L392.356 314.629C377.172 321.377 365.603 330.194 357.747 341.125L360.183 342.875ZM393.599 317.359C408.391 310.456 424.34 307 441.465 307V304C423.923 304 407.539 307.544 392.331 314.641L393.599 317.359ZM441.465 307C468.928 307 491.11 312.791 508.127 324.244L509.802 321.756C492.153 309.876 469.335 304 441.465 304V307ZM508.144 324.255C525.233 335.429 537.359 350.024 544.572 368.057L547.358 366.943C539.904 348.309 527.364 333.238 509.786 321.745L508.144 324.255ZM544.585 368.088C552.169 385.895 555.965 404.861 555.965 425H558.965C558.965 404.473 555.094 385.105 547.345 366.912L544.585 368.088ZM555.965 425C555.965 448.809 551.502 470.085 542.609 488.858L545.32 490.142C554.428 470.915 558.965 449.191 558.965 425H555.965ZM542.609 488.858C533.742 507.578 520.12 522.355 501.703 533.208L503.226 535.792C522.143 524.645 536.188 509.422 545.32 490.142L542.609 488.858ZM501.693 533.214C483.649 544.04 461.101 549.5 433.965 549.5V552.5C461.496 552.5 484.614 546.96 503.237 535.786L501.693 533.214ZM433.965 549.5C399.227 549.5 371.26 540.572 349.923 522.846L348.006 525.154C370.003 543.428 398.702 552.5 433.965 552.5V549.5ZM349.923 522.846C328.561 505.099 315.562 481.439 310.947 451.769L307.983 452.231C312.701 482.561 326.036 506.901 348.006 525.154L349.923 522.846ZM309.465 453.5H353.965V450.5H309.465V453.5ZM352.502 452.334C356.905 471.637 366.246 486.79 380.556 497.693L382.374 495.307C368.684 484.876 359.691 470.363 355.427 451.666L352.502 452.334ZM380.556 497.693C394.869 508.598 412.875 514 434.465 514V511C413.388 511 396.061 505.735 382.374 495.307L380.556 497.693ZM434.465 514C461.105 514 481.413 506.063 495.107 489.972L492.823 488.028C479.85 503.27 460.491 511 434.465 511V514ZM495.117 489.96C508.727 473.629 515.465 452.261 515.465 426H512.465C512.465 451.739 505.87 472.371 492.813 488.04L495.117 489.96ZM515.465 426C515.465 399.751 508.731 379.329 495.051 364.966L492.879 367.034C505.866 380.671 512.465 400.249 512.465 426H515.465ZM495.063 364.978C481.361 350.249 461.238 343 434.965 343V346C460.691 346 479.902 353.084 492.867 367.022L495.063 364.978ZM434.965 343C417.041 343 401.251 347.4 387.647 356.242L389.282 358.758C402.346 350.266 417.555 346 434.965 346V343ZM387.655 356.237C374.388 364.742 364.69 376.488 358.577 391.432L361.353 392.568C367.24 378.179 376.541 366.925 389.274 358.763L387.655 356.237ZM359.965 390.5H316.965V393.5H359.965V390.5ZM318.465 392V188H315.465V392H318.465ZM316.965 189.5H534.465V186.5H316.965V189.5ZM532.965 188V228H535.965V188H532.965ZM576.93 544L575.869 545.061L576.93 544ZM576.93 500L577.99 501.061L576.93 500ZM619.93 500L618.839 501.03L618.854 501.046L618.869 501.061L619.93 500ZM619.93 544L618.869 542.939L618.854 542.954L618.839 542.97L619.93 544ZM598.93 551.5C590.651 551.5 583.702 548.651 577.99 542.939L575.869 545.061C582.157 551.349 589.875 554.5 598.93 554.5V551.5ZM577.99 542.939C572.278 537.227 569.43 530.278 569.43 522H566.43C566.43 531.055 569.581 538.773 575.869 545.061L577.99 542.939ZM569.43 522C569.43 513.722 572.278 506.773 577.99 501.061L575.869 498.939C569.581 505.227 566.43 512.945 566.43 522H569.43ZM577.99 501.061C583.702 495.349 590.651 492.5 598.93 492.5V489.5C589.875 489.5 582.157 492.651 575.869 498.939L577.99 501.061ZM598.93 492.5C606.855 492.5 613.459 495.333 618.839 501.03L621.02 498.97C615.067 492.667 607.671 489.5 598.93 489.5V492.5ZM618.869 501.061C624.581 506.773 627.43 513.722 627.43 522H630.43C630.43 512.945 627.278 505.227 620.99 498.939L618.869 501.061ZM627.43 522C627.43 530.278 624.581 537.227 618.869 542.939L620.99 545.061C627.278 538.773 630.43 531.055 630.43 522H627.43ZM618.839 542.97C613.459 548.667 606.855 551.5 598.93 551.5V554.5C607.671 554.5 615.067 551.333 621.02 545.03L618.839 542.97ZM871.41 228V229.5H872.91V228H871.41ZM695.91 228V226.5H694.41V228H695.91ZM695.91 342H694.41V346.657L697.128 342.875L695.91 342ZM729.91 316L730.519 317.371L730.532 317.365L730.544 317.359L729.91 316ZM845.91 323L845.073 324.244L845.081 324.25L845.089 324.255L845.91 323ZM882.91 367.5L881.517 368.057L881.524 368.073L881.53 368.088L882.91 367.5ZM880.91 489.5L882.266 490.142L880.91 489.5ZM839.41 534.5L838.649 533.208L838.638 533.214L839.41 534.5ZM685.91 524L686.869 522.846L685.91 524ZM646.41 452V450.5H644.659L644.928 452.231L646.41 452ZM690.91 452L692.373 451.666L692.107 450.5H690.91V452ZM830.91 489L832.052 489.972L832.057 489.966L832.062 489.96L830.91 489ZM830.91 366L829.812 367.022L829.818 367.028L829.824 367.034L830.91 366ZM725.41 357.5L726.22 358.763L726.228 358.758L725.41 357.5ZM696.91 392V393.5H697.917L698.298 392.568L696.91 392ZM653.91 392H652.41V393.5H653.91V392ZM653.91 188V186.5H652.41V188H653.91ZM871.41 188H872.91V186.5H871.41V188ZM871.41 226.5H695.91V229.5H871.41V226.5ZM694.41 228V342H697.41V228H694.41ZM697.128 342.875C704.605 332.473 715.703 323.956 730.519 317.371L729.301 314.629C714.118 321.377 702.549 330.194 694.692 341.125L697.128 342.875ZM730.544 317.359C745.336 310.456 761.285 307 778.41 307V304C760.868 304 744.484 307.544 729.276 314.641L730.544 317.359ZM778.41 307C805.874 307 828.055 312.791 845.073 324.244L846.748 321.756C829.098 309.876 806.28 304 778.41 304V307ZM845.089 324.255C862.178 335.429 874.304 350.024 881.517 368.057L884.303 366.943C876.849 348.309 864.309 333.238 846.731 321.745L845.089 324.255ZM881.53 368.088C889.115 385.895 892.91 404.861 892.91 425H895.91C895.91 404.473 892.039 385.105 884.29 366.912L881.53 368.088ZM892.91 425C892.91 448.809 888.447 470.085 879.555 488.858L882.266 490.142C891.373 470.915 895.91 449.191 895.91 425H892.91ZM879.555 488.858C870.687 507.578 857.065 522.355 838.649 533.208L840.172 535.792C859.089 524.645 873.133 509.422 882.266 490.142L879.555 488.858ZM838.638 533.214C820.595 544.04 798.046 549.5 770.91 549.5V552.5C798.441 552.5 821.559 546.96 840.182 535.786L838.638 533.214ZM770.91 549.5C736.173 549.5 708.206 540.572 686.869 522.846L684.952 525.154C706.948 543.428 735.648 552.5 770.91 552.5V549.5ZM686.869 522.846C665.506 505.099 652.508 481.439 647.892 451.769L644.928 452.231C649.646 482.561 662.981 506.901 684.952 525.154L686.869 522.846ZM646.41 453.5H690.91V450.5H646.41V453.5ZM689.448 452.334C693.85 471.637 703.191 486.79 717.501 497.693L719.319 495.307C705.629 484.876 696.637 470.363 692.373 451.666L689.448 452.334ZM717.501 497.693C731.814 508.598 749.82 514 771.41 514V511C750.334 511 733.006 505.735 719.319 495.307L717.501 497.693ZM771.41 514C798.051 514 818.358 506.063 832.052 489.972L829.768 488.028C816.795 503.27 797.436 511 771.41 511V514ZM832.062 489.96C845.672 473.629 852.41 452.261 852.41 426H849.41C849.41 451.739 842.815 472.371 829.758 488.04L832.062 489.96ZM852.41 426C852.41 399.751 845.676 379.329 831.996 364.966L829.824 367.034C842.811 380.671 849.41 400.249 849.41 426H852.41ZM832.008 364.978C818.307 350.249 798.184 343 771.91 343V346C797.637 346 816.847 353.084 829.812 367.022L832.008 364.978ZM771.91 343C753.987 343 738.196 347.4 724.593 356.242L726.228 358.758C739.291 350.266 754.5 346 771.91 346V343ZM724.601 356.237C711.334 364.742 701.635 376.488 695.522 391.432L698.298 392.568C704.185 378.179 713.487 366.925 726.22 358.763L724.601 356.237ZM696.91 390.5H653.91V393.5H696.91V390.5ZM655.41 392V188H652.41V392H655.41ZM653.91 189.5H871.41V186.5H653.91V189.5ZM869.91 188V228H872.91V188H869.91ZM1144.38 228V229.5H1145.88V228H1144.38ZM968.875 228V226.5H967.375V228H968.875ZM968.875 342H967.375V346.657L970.093 342.875L968.875 342ZM1002.88 316L1003.48 317.371L1003.5 317.365L1003.51 317.359L1002.88 316ZM1118.88 323L1118.04 324.244L1118.05 324.25L1118.05 324.255L1118.88 323ZM1155.88 367.5L1154.48 368.057L1154.49 368.073L1154.49 368.088L1155.88 367.5ZM1153.88 489.5L1155.23 490.142L1153.88 489.5ZM1112.38 534.5L1111.61 533.208L1111.6 533.214L1112.38 534.5ZM958.875 524L959.834 522.846L958.875 524ZM919.375 452V450.5H917.624L917.893 452.231L919.375 452ZM963.875 452L965.337 451.666L965.071 450.5H963.875V452ZM1103.88 489L1105.02 489.972L1105.02 489.966L1105.03 489.96L1103.88 489ZM1103.88 366L1102.78 367.022L1102.78 367.028L1102.79 367.034L1103.88 366ZM998.375 357.5L999.185 358.763L999.193 358.758L998.375 357.5ZM969.875 392V393.5H970.882L971.263 392.568L969.875 392ZM926.875 392H925.375V393.5H926.875V392ZM926.875 188V186.5H925.375V188H926.875ZM1144.38 188H1145.88V186.5H1144.38V188ZM1144.38 226.5H968.875V229.5H1144.38V226.5ZM967.375 228V342H970.375V228H967.375ZM970.093 342.875C977.57 332.473 988.667 323.956 1003.48 317.371L1002.27 314.629C987.083 321.377 975.513 330.194 967.657 341.125L970.093 342.875ZM1003.51 317.359C1018.3 310.456 1034.25 307 1051.38 307V304C1033.83 304 1017.45 307.544 1002.24 314.641L1003.51 317.359ZM1051.38 307C1078.84 307 1101.02 312.791 1118.04 324.244L1119.71 321.756C1102.06 309.876 1079.24 304 1051.38 304V307ZM1118.05 324.255C1135.14 335.429 1147.27 350.024 1154.48 368.057L1157.27 366.943C1149.81 348.309 1137.27 333.238 1119.7 321.745L1118.05 324.255ZM1154.49 368.088C1162.08 385.895 1165.88 404.861 1165.88 425H1168.88C1168.88 404.473 1165 385.105 1157.26 366.912L1154.49 368.088ZM1165.88 425C1165.88 448.809 1161.41 470.085 1152.52 488.858L1155.23 490.142C1164.34 470.915 1168.88 449.191 1168.88 425H1165.88ZM1152.52 488.858C1143.65 507.578 1130.03 522.355 1111.61 533.208L1113.14 535.792C1132.05 524.645 1146.1 509.422 1155.23 490.142L1152.52 488.858ZM1111.6 533.214C1093.56 544.04 1071.01 549.5 1043.88 549.5V552.5C1071.41 552.5 1094.52 546.96 1113.15 535.786L1111.6 533.214ZM1043.88 549.5C1009.14 549.5 981.17 540.572 959.834 522.846L957.917 525.154C979.913 543.428 1008.61 552.5 1043.88 552.5V549.5ZM959.834 522.846C938.471 505.099 925.472 481.439 920.857 451.769L917.893 452.231C922.611 482.561 935.946 506.901 957.917 525.154L959.834 522.846ZM919.375 453.5H963.875V450.5H919.375V453.5ZM962.413 452.334C966.815 471.637 976.156 486.79 990.466 497.693L992.284 495.307C978.594 484.876 969.602 470.363 965.337 451.666L962.413 452.334ZM990.466 497.693C1004.78 508.598 1022.78 514 1044.38 514V511C1023.3 511 1005.97 505.735 992.284 495.307L990.466 497.693ZM1044.38 514C1071.02 514 1091.32 506.063 1105.02 489.972L1102.73 488.028C1089.76 503.27 1070.4 511 1044.38 511V514ZM1105.03 489.96C1118.64 473.629 1125.38 452.261 1125.38 426H1122.38C1122.38 451.739 1115.78 472.371 1102.72 488.04L1105.03 489.96ZM1125.38 426C1125.38 399.751 1118.64 379.329 1104.96 364.966L1102.79 367.034C1115.78 380.671 1122.38 400.249 1122.38 426H1125.38ZM1104.97 364.978C1091.27 350.249 1071.15 343 1044.88 343V346C1070.6 346 1089.81 353.084 1102.78 367.022L1104.97 364.978ZM1044.88 343C1026.95 343 1011.16 347.4 997.557 356.242L999.193 358.758C1012.26 350.266 1027.47 346 1044.88 346V343ZM997.565 356.237C984.299 364.742 974.6 376.488 968.487 391.432L971.263 392.568C977.15 378.179 986.452 366.925 999.185 358.763L997.565 356.237ZM969.875 390.5H926.875V393.5H969.875V390.5ZM928.375 392V188H925.375V392H928.375ZM926.875 189.5H1144.38V186.5H926.875V189.5ZM1142.88 188V228H1145.88V188H1142.88Z" fill="white" mask="url(#path-1-outside-1_3018_591)"/>
</svg>
