<svg width="1132" height="365" viewBox="0 0 1132 365" fill="none" xmlns="http://www.w3.org/2000/svg">
<mask id="path-1-outside-1_3018_591" maskUnits="userSpaceOnUse" x="-2" y="-2" width="1135" height="369" fill="black">
<rect fill="white" x="-2" y="-2" width="1135" height="369"/>
<path d="M225.5 40H50V154C57.6667 143.333 69 134.667 84 128C99 121 115.167 117.5 132.5 117.5C160.167 117.5 182.667 123.333 200 135C217.333 146.333 229.667 161.167 237 179.5C244.667 197.5 248.5 216.667 248.5 237C248.5 261 244 282.5 235 301.5C226 320.5 212.167 335.5 193.5 346.5C175.167 357.5 152.333 363 125 363C90 363 61.6667 354 40 336C18.3333 318 5.16667 294 0.500003 264H45C49.3333 283 58.5 297.833 72.5 308.5C86.5 319.167 104.167 324.5 125.5 324.5C151.833 324.5 171.667 316.667 185 301C198.333 285 205 264 205 238C205 212 198.333 192 185 178C171.667 163.667 152 156.5 126 156.5C108.333 156.5 92.8333 160.833 79.5 169.5C66.5 177.833 57 189.333 51 204H8V-1.83582e-05H225.5V40ZM498.465 40H322.965V154C330.632 143.333 341.965 134.667 356.965 128C371.965 121 388.132 117.5 405.465 117.5C433.132 117.5 455.632 123.333 472.965 135C490.298 146.333 502.632 161.167 509.965 179.5C517.632 197.5 521.465 216.667 521.465 237C521.465 261 516.965 282.5 507.965 301.5C498.965 320.5 485.132 335.5 466.465 346.5C448.132 357.5 425.298 363 397.965 363C362.965 363 334.632 354 312.965 336C291.298 318 278.132 294 273.465 264H317.965C322.298 283 331.465 297.833 345.465 308.5C359.465 319.167 377.132 324.5 398.465 324.5C424.798 324.5 444.632 316.667 457.965 301C471.298 285 477.965 264 477.965 238C477.965 212 471.298 192 457.965 178C444.632 163.667 424.965 156.5 398.965 156.5C381.298 156.5 365.798 160.833 352.465 169.5C339.465 177.833 329.965 189.333 323.965 204H280.965V-1.83582e-05H498.465V40ZM562.93 365C554.263 365 546.93 362 540.93 356C534.93 350 531.93 342.667 531.93 334C531.93 325.333 534.93 318 540.93 312C546.93 306 554.263 303 562.93 303C571.263 303 578.263 306 583.93 312C589.93 318 592.93 325.333 592.93 334C592.93 342.667 589.93 350 583.93 356C578.263 362 571.263 365 562.93 365ZM835.41 40H659.91V154C667.577 143.333 678.91 134.667 693.91 128C708.91 121 725.077 117.5 742.41 117.5C770.077 117.5 792.577 123.333 809.91 135C827.244 146.333 839.577 161.167 846.91 179.5C854.577 197.5 858.41 216.667 858.41 237C858.41 261 853.91 282.5 844.91 301.5C835.91 320.5 822.077 335.5 803.41 346.5C785.077 357.5 762.243 363 734.91 363C699.91 363 671.577 354 649.91 336C628.243 318 615.077 294 610.41 264H654.91C659.243 283 668.41 297.833 682.41 308.5C696.41 319.167 714.077 324.5 735.41 324.5C761.743 324.5 781.577 316.667 794.91 301C808.244 285 814.91 264 814.91 238C814.91 212 808.244 192 794.91 178C781.577 163.667 761.91 156.5 735.91 156.5C718.243 156.5 702.743 160.833 689.41 169.5C676.41 177.833 666.91 189.333 660.91 204H617.91V-1.83582e-05H835.41V40ZM1108.38 40H932.875V154C940.542 143.333 951.875 134.667 966.875 128C981.875 121 998.042 117.5 1015.38 117.5C1043.04 117.5 1065.54 123.333 1082.88 135C1100.21 146.333 1112.54 161.167 1119.88 179.5C1127.54 197.5 1131.38 216.667 1131.38 237C1131.38 261 1126.88 282.5 1117.88 301.5C1108.88 320.5 1095.04 335.5 1076.38 346.5C1058.04 357.5 1035.21 363 1007.88 363C972.875 363 944.542 354 922.875 336C901.208 318 888.042 294 883.375 264H927.875C932.208 283 941.375 297.833 955.375 308.5C969.375 319.167 987.042 324.5 1008.38 324.5C1034.71 324.5 1054.54 316.667 1067.88 301C1081.21 285 1087.88 264 1087.88 238C1087.88 212 1081.21 192 1067.88 178C1054.54 163.667 1034.88 156.5 1008.88 156.5C991.208 156.5 975.708 160.833 962.375 169.5C949.375 177.833 939.875 189.333 933.875 204H890.875V-1.83582e-05H1108.38V40Z"/>
</mask>
<path d="M225.5 40V41.5H227V40H225.5ZM50 40V38.5H48.5V40H50ZM50 154H48.5V158.657L51.218 154.875L50 154ZM84 128L84.6092 129.371L84.6218 129.365L84.6343 129.359L84 128ZM200 135L199.162 136.244L199.171 136.25L199.179 136.255L200 135ZM237 179.5L235.607 180.057L235.613 180.073L235.62 180.088L237 179.5ZM235 301.5L236.356 302.142L235 301.5ZM193.5 346.5L192.738 345.208L192.728 345.214L193.5 346.5ZM40 336L40.9585 334.846L40 336ZM0.500004 264V262.5H-1.25137L-0.98217 264.231L0.500004 264ZM45 264L46.4624 263.666L46.1964 262.5H45V264ZM185 301L186.142 301.972L186.147 301.966L186.152 301.96L185 301ZM185 178L183.902 179.022L183.908 179.028L183.914 179.034L185 178ZM79.5 169.5L80.3095 170.763L80.3175 170.758L79.5 169.5ZM51 204V205.5H52.007L52.3883 204.568L51 204ZM8 204H6.5V205.5H8V204ZM8 -1.52588e-05V-1.50002H6.5V-1.52588e-05H8ZM225.5 -1.52588e-05H227V-1.50002H225.5V-1.52588e-05ZM225.5 38.5H50V41.5H225.5V38.5ZM48.5 40V154H51.5V40H48.5ZM51.218 154.875C58.695 144.473 69.7924 135.956 84.6092 129.371L83.3908 126.629C68.2076 133.377 56.6384 142.194 48.782 153.125L51.218 154.875ZM84.6343 129.359C99.4263 122.456 115.375 119 132.5 119V116C114.958 116 98.5737 119.544 83.3657 126.641L84.6343 129.359ZM132.5 119C159.963 119 182.145 124.791 199.162 136.244L200.838 133.756C183.188 121.876 160.37 116 132.5 116V119ZM199.179 136.255C216.268 147.429 228.394 162.024 235.607 180.057L238.393 178.943C230.939 160.309 218.399 145.238 200.821 133.745L199.179 136.255ZM235.62 180.088C243.204 197.895 247 216.861 247 237H250C250 216.473 246.129 197.105 238.38 178.912L235.62 180.088ZM247 237C247 260.809 242.537 282.085 233.644 300.858L236.356 302.142C245.463 282.915 250 261.191 250 237H247ZM233.644 300.858C224.777 319.578 211.155 334.355 192.738 345.208L194.262 347.792C213.178 336.645 227.223 321.422 236.356 302.142L233.644 300.858ZM192.728 345.214C174.685 356.04 152.136 361.5 125 361.5V364.5C152.531 364.5 175.649 358.96 194.272 347.786L192.728 345.214ZM125 361.5C90.2626 361.5 62.2955 352.572 40.9585 334.846L39.0415 337.154C61.0378 355.428 89.7374 364.5 125 364.5V361.5ZM40.9585 334.846C19.596 317.099 6.59739 293.439 1.98218 263.769L-0.98217 264.231C3.73595 294.561 17.0707 318.901 39.0415 337.154L40.9585 334.846ZM0.500004 265.5H45V262.5H0.500004V265.5ZM43.5376 264.334C47.9401 283.637 57.2811 298.79 71.5909 309.693L73.4091 307.307C59.7189 296.876 50.7266 282.363 46.4624 263.666L43.5376 264.334ZM71.5909 309.693C85.9039 320.598 103.91 326 125.5 326V323C104.424 323 87.0961 317.735 73.4091 307.307L71.5909 309.693ZM125.5 326C152.141 326 172.448 318.063 186.142 301.972L183.858 300.028C170.885 315.27 151.526 323 125.5 323V326ZM186.152 301.96C199.762 285.629 206.5 264.261 206.5 238H203.5C203.5 263.739 196.905 284.371 183.848 300.04L186.152 301.96ZM206.5 238C206.5 211.751 199.766 191.329 186.086 176.966L183.914 179.034C196.901 192.671 203.5 212.249 203.5 238H206.5ZM186.098 176.978C172.397 162.249 152.274 155 126 155V158C151.726 158 170.937 165.084 183.902 179.022L186.098 176.978ZM126 155C108.076 155 92.2857 159.4 78.6825 168.242L80.3175 170.758C93.381 162.266 108.59 158 126 158V155ZM78.6905 168.237C65.4235 176.742 55.7253 188.488 49.6117 203.432L52.3883 204.568C58.2747 190.179 67.5765 178.925 80.3095 170.763L78.6905 168.237ZM51 202.5H8V205.5H51V202.5ZM9.5 204V-1.52588e-05H6.5V204H9.5ZM8 1.49998H225.5V-1.50002H8V1.49998ZM224 -1.52588e-05V40H227V-1.52588e-05H224ZM498.465 40V41.5H499.965V40H498.465ZM322.965 40V38.5H321.465V40H322.965ZM322.965 154H321.465V158.657L324.183 154.875L322.965 154ZM356.965 128L357.574 129.371L357.587 129.365L357.599 129.359L356.965 128ZM472.965 135L472.127 136.244L472.136 136.25L472.144 136.255L472.965 135ZM509.965 179.5L508.572 180.057L508.578 180.073L508.585 180.088L509.965 179.5ZM507.965 301.5L509.32 302.142L507.965 301.5ZM466.465 346.5L465.703 345.208L465.693 345.214L466.465 346.5ZM312.965 336L313.923 334.846L312.965 336ZM273.465 264V262.5H271.713L271.983 264.231L273.465 264ZM317.965 264L319.427 263.666L319.161 262.5H317.965V264ZM457.965 301L459.107 301.972L459.112 301.966L459.117 301.96L457.965 301ZM457.965 178L456.867 179.022L456.873 179.028L456.879 179.034L457.965 178ZM352.465 169.5L353.274 170.763L353.282 170.758L352.465 169.5ZM323.965 204V205.5H324.972L325.353 204.568L323.965 204ZM280.965 204H279.465V205.5H280.965V204ZM280.965 -1.52588e-05V-1.50002H279.465V-1.52588e-05H280.965ZM498.465 -1.52588e-05H499.965V-1.50002H498.465V-1.52588e-05ZM498.465 38.5H322.965V41.5H498.465V38.5ZM321.465 40V154H324.465V40H321.465ZM324.183 154.875C331.66 144.473 342.757 135.956 357.574 129.371L356.356 126.629C341.172 133.377 329.603 142.194 321.747 153.125L324.183 154.875ZM357.599 129.359C372.391 122.456 388.34 119 405.465 119V116C387.923 116 371.539 119.544 356.331 126.641L357.599 129.359ZM405.465 119C432.928 119 455.11 124.791 472.127 136.244L473.802 133.756C456.153 121.876 433.335 116 405.465 116V119ZM472.144 136.255C489.233 147.429 501.359 162.024 508.572 180.057L511.358 178.943C503.904 160.309 491.364 145.238 473.786 133.745L472.144 136.255ZM508.585 180.088C516.169 197.895 519.965 216.861 519.965 237H522.965C522.965 216.473 519.094 197.105 511.345 178.912L508.585 180.088ZM519.965 237C519.965 260.809 515.502 282.085 506.609 300.858L509.32 302.142C518.428 282.915 522.965 261.191 522.965 237H519.965ZM506.609 300.858C497.742 319.578 484.12 334.355 465.703 345.208L467.226 347.792C486.143 336.645 500.188 321.422 509.32 302.142L506.609 300.858ZM465.693 345.214C447.649 356.04 425.101 361.5 397.965 361.5V364.5C425.496 364.5 448.614 358.96 467.237 347.786L465.693 345.214ZM397.965 361.5C363.227 361.5 335.26 352.572 313.923 334.846L312.006 337.154C334.003 355.428 362.702 364.5 397.965 364.5V361.5ZM313.923 334.846C292.561 317.099 279.562 293.439 274.947 263.769L271.983 264.231C276.701 294.561 290.036 318.901 312.006 337.154L313.923 334.846ZM273.465 265.5H317.965V262.5H273.465V265.5ZM316.502 264.334C320.905 283.637 330.246 298.79 344.556 309.693L346.374 307.307C332.684 296.876 323.691 282.363 319.427 263.666L316.502 264.334ZM344.556 309.693C358.869 320.598 376.875 326 398.465 326V323C377.388 323 360.061 317.735 346.374 307.307L344.556 309.693ZM398.465 326C425.105 326 445.413 318.063 459.107 301.972L456.823 300.028C443.85 315.27 424.491 323 398.465 323V326ZM459.117 301.96C472.727 285.629 479.465 264.261 479.465 238H476.465C476.465 263.739 469.87 284.371 456.813 300.04L459.117 301.96ZM479.465 238C479.465 211.751 472.731 191.329 459.051 176.966L456.879 179.034C469.866 192.671 476.465 212.249 476.465 238H479.465ZM459.063 176.978C445.361 162.249 425.238 155 398.965 155V158C424.691 158 443.902 165.084 456.867 179.022L459.063 176.978ZM398.965 155C381.041 155 365.251 159.4 351.647 168.242L353.282 170.758C366.346 162.266 381.555 158 398.965 158V155ZM351.655 168.237C338.388 176.742 328.69 188.488 322.577 203.432L325.353 204.568C331.24 190.179 340.541 178.925 353.274 170.763L351.655 168.237ZM323.965 202.5H280.965V205.5H323.965V202.5ZM282.465 204V-1.52588e-05H279.465V204H282.465ZM280.965 1.49998H498.465V-1.50002H280.965V1.49998ZM496.965 -1.52588e-05V40H499.965V-1.52588e-05H496.965ZM540.93 356L539.869 357.061L540.93 356ZM540.93 312L541.99 313.061L540.93 312ZM583.93 312L582.839 313.03L582.854 313.046L582.869 313.061L583.93 312ZM583.93 356L582.869 354.939L582.854 354.954L582.839 354.97L583.93 356ZM562.93 363.5C554.651 363.5 547.702 360.651 541.99 354.939L539.869 357.061C546.157 363.349 553.875 366.5 562.93 366.5V363.5ZM541.99 354.939C536.278 349.227 533.43 342.278 533.43 334H530.43C530.43 343.055 533.581 350.773 539.869 357.061L541.99 354.939ZM533.43 334C533.43 325.722 536.278 318.773 541.99 313.061L539.869 310.939C533.581 317.227 530.43 324.945 530.43 334H533.43ZM541.99 313.061C547.702 307.349 554.651 304.5 562.93 304.5V301.5C553.875 301.5 546.157 304.651 539.869 310.939L541.99 313.061ZM562.93 304.5C570.855 304.5 577.459 307.333 582.839 313.03L585.02 310.97C579.067 304.667 571.671 301.5 562.93 301.5V304.5ZM582.869 313.061C588.581 318.773 591.43 325.722 591.43 334H594.43C594.43 324.945 591.278 317.227 584.99 310.939L582.869 313.061ZM591.43 334C591.43 342.278 588.581 349.227 582.869 354.939L584.99 357.061C591.278 350.773 594.43 343.055 594.43 334H591.43ZM582.839 354.97C577.459 360.667 570.855 363.5 562.93 363.5V366.5C571.671 366.5 579.067 363.333 585.02 357.03L582.839 354.97ZM835.41 40V41.5H836.91V40H835.41ZM659.91 40V38.5H658.41V40H659.91ZM659.91 154H658.41V158.657L661.128 154.875L659.91 154ZM693.91 128L694.519 129.371L694.532 129.365L694.544 129.359L693.91 128ZM809.91 135L809.073 136.244L809.081 136.25L809.089 136.255L809.91 135ZM846.91 179.5L845.517 180.057L845.524 180.073L845.53 180.088L846.91 179.5ZM844.91 301.5L846.266 302.142L844.91 301.5ZM803.41 346.5L802.649 345.208L802.638 345.214L803.41 346.5ZM649.91 336L650.869 334.846L649.91 336ZM610.41 264V262.5H608.659L608.928 264.231L610.41 264ZM654.91 264L656.373 263.666L656.107 262.5H654.91V264ZM794.91 301L796.052 301.972L796.057 301.966L796.062 301.96L794.91 301ZM794.91 178L793.812 179.022L793.818 179.028L793.824 179.034L794.91 178ZM689.41 169.5L690.22 170.763L690.228 170.758L689.41 169.5ZM660.91 204V205.5H661.917L662.298 204.568L660.91 204ZM617.91 204H616.41V205.5H617.91V204ZM617.91 -1.52588e-05V-1.50002H616.41V-1.52588e-05H617.91ZM835.41 -1.52588e-05H836.91V-1.50002H835.41V-1.52588e-05ZM835.41 38.5H659.91V41.5H835.41V38.5ZM658.41 40V154H661.41V40H658.41ZM661.128 154.875C668.605 144.473 679.703 135.956 694.519 129.371L693.301 126.629C678.118 133.377 666.549 142.194 658.692 153.125L661.128 154.875ZM694.544 129.359C709.336 122.456 725.285 119 742.41 119V116C724.868 116 708.484 119.544 693.276 126.641L694.544 129.359ZM742.41 119C769.874 119 792.055 124.791 809.073 136.244L810.748 133.756C793.098 121.876 770.28 116 742.41 116V119ZM809.089 136.255C826.178 147.429 838.304 162.024 845.517 180.057L848.303 178.943C840.849 160.309 828.309 145.238 810.731 133.745L809.089 136.255ZM845.53 180.088C853.115 197.895 856.91 216.861 856.91 237H859.91C859.91 216.473 856.039 197.105 848.29 178.912L845.53 180.088ZM856.91 237C856.91 260.809 852.447 282.085 843.555 300.858L846.266 302.142C855.373 282.915 859.91 261.191 859.91 237H856.91ZM843.555 300.858C834.687 319.578 821.065 334.355 802.649 345.208L804.172 347.792C823.089 336.645 837.133 321.422 846.266 302.142L843.555 300.858ZM802.638 345.214C784.595 356.04 762.046 361.5 734.91 361.5V364.5C762.441 364.5 785.559 358.96 804.182 347.786L802.638 345.214ZM734.91 361.5C700.173 361.5 672.206 352.572 650.869 334.846L648.952 337.154C670.948 355.428 699.648 364.5 734.91 364.5V361.5ZM650.869 334.846C629.506 317.099 616.508 293.439 611.892 263.769L608.928 264.231C613.646 294.561 626.981 318.901 648.952 337.154L650.869 334.846ZM610.41 265.5H654.91V262.5H610.41V265.5ZM653.448 264.334C657.85 283.637 667.191 298.79 681.501 309.693L683.319 307.307C669.629 296.876 660.637 282.363 656.373 263.666L653.448 264.334ZM681.501 309.693C695.814 320.598 713.82 326 735.41 326V323C714.334 323 697.006 317.735 683.319 307.307L681.501 309.693ZM735.41 326C762.051 326 782.358 318.063 796.052 301.972L793.768 300.028C780.795 315.27 761.436 323 735.41 323V326ZM796.062 301.96C809.672 285.629 816.41 264.261 816.41 238H813.41C813.41 263.739 806.815 284.371 793.758 300.04L796.062 301.96ZM816.41 238C816.41 211.751 809.676 191.329 795.996 176.966L793.824 179.034C806.811 192.671 813.41 212.249 813.41 238H816.41ZM796.008 176.978C782.307 162.249 762.184 155 735.91 155V158C761.637 158 780.847 165.084 793.812 179.022L796.008 176.978ZM735.91 155C717.987 155 702.196 159.4 688.593 168.242L690.228 170.758C703.291 162.266 718.5 158 735.91 158V155ZM688.601 168.237C675.334 176.742 665.635 188.488 659.522 203.432L662.298 204.568C668.185 190.179 677.487 178.925 690.22 170.763L688.601 168.237ZM660.91 202.5H617.91V205.5H660.91V202.5ZM619.41 204V-1.52588e-05H616.41V204H619.41ZM617.91 1.49998H835.41V-1.50002H617.91V1.49998ZM833.91 -1.52588e-05V40H836.91V-1.52588e-05H833.91ZM1108.38 40V41.5H1109.88V40H1108.38ZM932.875 40V38.5H931.375V40H932.875ZM932.875 154H931.375V158.657L934.093 154.875L932.875 154ZM966.875 128L967.484 129.371L967.497 129.365L967.509 129.359L966.875 128ZM1082.88 135L1082.04 136.244L1082.05 136.25L1082.05 136.255L1082.88 135ZM1119.88 179.5L1118.48 180.057L1118.49 180.073L1118.49 180.088L1119.88 179.5ZM1117.88 301.5L1119.23 302.142L1117.88 301.5ZM1076.38 346.5L1075.61 345.208L1075.6 345.214L1076.38 346.5ZM922.875 336L923.834 334.846L922.875 336ZM883.375 264V262.5H881.624L881.893 264.231L883.375 264ZM927.875 264L929.337 263.666L929.071 262.5H927.875V264ZM1067.88 301L1069.02 301.972L1069.02 301.966L1069.03 301.96L1067.88 301ZM1067.88 178L1066.78 179.022L1066.78 179.028L1066.79 179.034L1067.88 178ZM962.375 169.5L963.185 170.763L963.193 170.758L962.375 169.5ZM933.875 204V205.5H934.882L935.263 204.568L933.875 204ZM890.875 204H889.375V205.5H890.875V204ZM890.875 -1.52588e-05V-1.50002H889.375V-1.52588e-05H890.875ZM1108.38 -1.52588e-05H1109.88V-1.50002H1108.38V-1.52588e-05ZM1108.38 38.5H932.875V41.5H1108.38V38.5ZM931.375 40V154H934.375V40H931.375ZM934.093 154.875C941.57 144.473 952.667 135.956 967.484 129.371L966.266 126.629C951.083 133.377 939.513 142.194 931.657 153.125L934.093 154.875ZM967.509 129.359C982.301 122.456 998.25 119 1015.38 119V116C997.833 116 981.449 119.544 966.241 126.641L967.509 129.359ZM1015.38 119C1042.84 119 1065.02 124.791 1082.04 136.244L1083.71 133.756C1066.06 121.876 1043.24 116 1015.38 116V119ZM1082.05 136.255C1099.14 147.429 1111.27 162.024 1118.48 180.057L1121.27 178.943C1113.81 160.309 1101.27 145.238 1083.7 133.745L1082.05 136.255ZM1118.49 180.088C1126.08 197.895 1129.88 216.861 1129.88 237H1132.88C1132.88 216.473 1129 197.105 1121.26 178.912L1118.49 180.088ZM1129.88 237C1129.88 260.809 1125.41 282.085 1116.52 300.858L1119.23 302.142C1128.34 282.915 1132.88 261.191 1132.88 237H1129.88ZM1116.52 300.858C1107.65 319.578 1094.03 334.355 1075.61 345.208L1077.14 347.792C1096.05 336.645 1110.1 321.422 1119.23 302.142L1116.52 300.858ZM1075.6 345.214C1057.56 356.04 1035.01 361.5 1007.88 361.5V364.5C1035.41 364.5 1058.52 358.96 1077.15 347.786L1075.6 345.214ZM1007.88 361.5C973.138 361.5 945.17 352.572 923.834 334.846L921.917 337.154C943.913 355.428 972.612 364.5 1007.88 364.5V361.5ZM923.834 334.846C902.471 317.099 889.472 293.439 884.857 263.769L881.893 264.231C886.611 294.561 899.946 318.901 921.917 337.154L923.834 334.846ZM883.375 265.5H927.875V262.5H883.375V265.5ZM926.413 264.334C930.815 283.637 940.156 298.79 954.466 309.693L956.284 307.307C942.594 296.876 933.602 282.363 929.337 263.666L926.413 264.334ZM954.466 309.693C968.779 320.598 986.785 326 1008.38 326V323C987.299 323 969.971 317.735 956.284 307.307L954.466 309.693ZM1008.38 326C1035.02 326 1055.32 318.063 1069.02 301.972L1066.73 300.028C1053.76 315.27 1034.4 323 1008.38 323V326ZM1069.03 301.96C1082.64 285.629 1089.38 264.261 1089.38 238H1086.38C1086.38 263.739 1079.78 284.371 1066.72 300.04L1069.03 301.96ZM1089.38 238C1089.38 211.751 1082.64 191.329 1068.96 176.966L1066.79 179.034C1079.78 192.671 1086.38 212.249 1086.38 238H1089.38ZM1068.97 176.978C1055.27 162.249 1035.15 155 1008.88 155V158C1034.6 158 1053.81 165.084 1066.78 179.022L1068.97 176.978ZM1008.88 155C990.952 155 975.161 159.4 961.557 168.242L963.193 170.758C976.256 162.266 991.465 158 1008.88 158V155ZM961.565 168.237C948.299 176.742 938.6 188.488 932.487 203.432L935.263 204.568C941.15 190.179 950.452 178.925 963.185 170.763L961.565 168.237ZM933.875 202.5H890.875V205.5H933.875V202.5ZM892.375 204V-1.52588e-05H889.375V204H892.375ZM890.875 1.49998H1108.38V-1.50002H890.875V1.49998ZM1106.88 -1.52588e-05V40H1109.88V-1.52588e-05H1106.88Z" fill="white" mask="url(#path-1-outside-1_3018_591)"/>
</svg>
