<svg
            width="79"
            height="19"
            viewBox="0 0 79 19"
            fill="none"
            xmlns="http://www.w3.org/2000/svg"
          >
            <rect x="14" width="65" height="19" fill="white" />
            <rect y="13.125" width="15" height="1.875" fill="black" />
            <rect y="9.0625" width="15" height="1.875" fill="black" />
            <rect y="5" width="15" height="1.875" fill="black" />
            <path
              fill-rule="evenodd"
              clip-rule="evenodd"
              d="M51.8589 4.01236C54.3895 5.76887 54.9889 9.20425 53.1968 11.6852L56.6343 15.0131C56.6493 15.0269 56.663 15.0403 56.6771 15.055C57.1237 15.5163 57.1048 16.2453 56.6343 16.6831C56.1638 17.1213 55.4202 17.1028 54.9733 16.6416L51.4702 13.244C49.5651 14.347 47.1771 14.2505 45.3709 12.9968C42.8399 11.2403 42.241 7.80534 44.0326 5.32439C45.8243 2.84303 49.3284 2.25585 51.8589 4.01236ZM44.989 8.51298C44.9903 10.4735 46.6116 12.0617 48.6113 12.0613H48.6138C50.6144 12.0579 52.2335 10.4659 52.2301 8.505C52.2262 6.54703 50.6058 4.96134 48.6087 4.96218C46.6086 4.96302 44.9886 6.55248 44.989 8.51298Z"
              fill="black"
            />
          </svg>